<?xml version="1.0" standalone="no"?>
<!DOCTYPE svg PUBLIC "-//W3C//DTD SVG 20010904//EN"
 "http://www.w3.org/TR/2001/REC-SVG-20010904/DTD/svg10.dtd">
<svg version="1.0" xmlns="http://www.w3.org/2000/svg"
 width="1131.000000pt" height="1131.000000pt" viewBox="0 0 1131.000000 1131.000000"
 preserveAspectRatio="xMidYMid meet">
<metadata>
Created by potrace 1.14, written by Peter Selinger 2001-2017
</metadata>
<g transform="translate(0.000000,1131.000000) scale(0.100000,-0.100000)"
fill="#000000" stroke="none">
<path d="M5440 8260 c-63 -10 -137 -25 -164 -34 -58 -19 -202 -88 -234 -113
-92 -71 -132 -106 -169 -149 -44 -52 -313 -451 -313 -464 0 -5 -3 -10 -8 -12
-12 -5 -504 -747 -509 -769 -5 -19 -3 -20 18 -14 35 12 362 9 439 -3 166 -26
311 -72 460 -145 58 -28 107 -54 110 -57 3 -3 32 -23 65 -45 164 -106 335
-314 571 -693 101 -162 421 -651 434 -662 3 -3 18 -21 34 -40 137 -168 407
-293 666 -306 281 -15 542 80 730 266 61 60 130 148 130 166 0 4 6 15 13 23
13 15 39 85 68 181 28 91 10 320 -31 399 -5 9 -20 40 -34 68 -23 47 -209 328
-1143 1728 -128 193 -252 371 -276 396 -39 43 -168 149 -180 149 -4 0 -29 14
-57 30 -78 46 -212 87 -340 104 -135 19 -133 19 -280 -4z"/>
<path d="M4130 6271 c-208 -31 -421 -138 -547 -274 -83 -90 -131 -180 -182
-339 -7 -20 -12 -84 -12 -141 0 -194 63 -348 204 -494 107 -111 257 -197 427
-244 73 -21 108 -24 250 -24 99 0 181 5 205 12 151 45 198 63 267 103 42 25
104 66 138 93 68 53 165 177 205 264 38 79 65 200 65 289 0 74 -32 229 -51
248 -5 6 -9 16 -9 24 0 27 -74 135 -139 205 -117 124 -271 214 -441 257 -94
23 -288 34 -380 21z"/>
<path d="M1910 4370 c-14 -5 -56 -16 -95 -24 -352 -76 -418 -94 -437 -116 -17
-21 -14 -52 6 -69 6 -5 56 -15 111 -21 151 -17 332 -38 410 -48 51 -7 81 -6
110 4 22 7 56 17 75 22 19 6 91 27 160 47 69 20 140 40 158 45 19 5 46 13 60
19 15 5 46 15 70 21 26 7 48 20 58 35 15 23 15 27 1 48 -15 23 -21 24 -209 31
-106 3 -251 8 -323 11 -71 2 -141 0 -155 -5z"/>
<path d="M3206 4328 c-9 -12 -16 -30 -16 -38 0 -9 -4 -20 -9 -25 -5 -6 -14
-26 -19 -45 -6 -19 -27 -80 -47 -135 -73 -201 -73 -197 2 -193 49 3 58 6 62
23 5 30 19 35 109 35 l83 0 10 -30 c10 -28 14 -30 63 -30 29 0 55 3 58 6 6 6
-7 66 -22 99 -5 11 -20 54 -34 95 -41 121 -83 237 -90 249 -4 6 -35 11 -71 11
-55 0 -66 -3 -79 -22z m104 -203 c4 -5 10 -22 14 -37 6 -27 5 -28 -39 -28 -27
0 -45 5 -45 11 0 7 10 39 22 72 l22 61 9 -35 c5 -19 12 -38 17 -44z"/>
<path d="M3865 4327 c-66 -37 -85 -82 -85 -210 0 -163 24 -200 152 -232 52
-13 75 -14 105 -6 21 6 49 12 63 13 21 3 25 9 28 42 4 49 -9 58 -74 50 -29 -3
-66 -3 -83 1 -54 12 -61 26 -61 131 0 125 3 129 124 129 l91 0 3 40 c5 57 -12
65 -127 64 -79 0 -103 -5 -136 -22z"/>
<path d="M4553 4323 c-12 -28 -54 -144 -78 -218 -8 -22 -25 -71 -39 -110 -37
-102 -36 -105 27 -105 55 0 77 12 77 42 0 16 10 18 89 18 88 0 90 -1 103 -27
12 -25 19 -28 71 -31 54 -3 57 -2 57 21 0 12 -4 27 -9 33 -4 5 -20 45 -34 89
-32 97 -55 163 -66 190 -5 11 -17 43 -27 70 l-20 50 -69 3 c-68 3 -70 2 -82
-25z m108 -196 c5 -21 13 -45 16 -53 4 -11 -6 -14 -45 -14 l-51 0 15 28 c7 15
14 32 14 39 0 6 5 24 11 40 12 32 22 22 40 -40z"/>
<path d="M5147 4343 c-4 -3 -7 -107 -7 -230 l0 -223 121 0 c193 0 238 34 247
187 12 212 -45 273 -252 273 -57 0 -106 -3 -109 -7z m182 -99 c43 -9 61 -47
61 -129 0 -61 -12 -100 -35 -117 -5 -4 -29 -8 -52 -8 l-43 0 0 130 c0 144 -3
138 69 124z"/>
<path d="M5807 4344 c-4 -4 -7 -108 -7 -231 l0 -223 170 0 170 0 0 38 c0 21
-5 43 -12 50 -8 8 -47 12 -110 12 l-98 0 0 35 0 34 88 3 87 3 3 46 c4 55 -4
59 -110 59 l-68 0 0 40 0 39 108 3 107 3 0 45 0 45 -161 3 c-88 1 -163 -1
-167 -4z"/>
<path d="M6447 4343 c-4 -3 -7 -107 -7 -230 l0 -223 60 0 60 0 1 118 c0 91 3
112 11 95 6 -13 15 -23 20 -23 4 0 8 -6 8 -13 0 -7 11 -29 25 -50 23 -33 30
-37 69 -37 50 0 63 13 118 120 11 22 13 11 16 -93 l3 -118 57 3 57 3 3 205 c1
113 0 215 -3 228 -5 19 -12 22 -54 22 -57 0 -57 0 -135 -132 -31 -54 -58 -98
-60 -98 -2 0 -34 52 -72 115 l-69 115 -51 0 c-28 0 -54 -3 -57 -7z"/>
<path d="M7363 4298 c-11 -29 -31 -82 -43 -118 -12 -36 -26 -74 -30 -85 -4
-11 -18 -49 -30 -85 -12 -36 -26 -73 -31 -83 -15 -29 -2 -37 60 -37 57 0 59 1
65 30 l6 30 91 0 91 0 11 -30 c11 -29 14 -30 70 -30 l59 0 -7 33 c-4 17 -13
46 -20 62 -7 17 -23 59 -35 95 -12 36 -28 79 -35 95 -6 17 -20 57 -30 90 -11
33 -23 66 -28 73 -6 7 -34 12 -76 12 l-67 0 -21 -52z m117 -173 c5 -11 12 -30
15 -42 6 -21 3 -23 -39 -23 -51 0 -58 12 -32 62 8 15 18 42 22 60 l7 33 9 -35
c5 -19 13 -44 18 -55z"/>
<path d="M7934 4325 c-3 -14 -3 -36 0 -50 6 -23 11 -25 66 -25 l60 0 0 -180 0
-180 60 0 60 0 0 180 0 180 65 0 65 0 0 50 0 50 -185 0 -185 0 -6 -25z"/>
<path d="M8597 4343 c-4 -3 -7 -107 -7 -230 l0 -223 168 2 167 3 3 33 c5 54
-9 62 -114 62 l-94 0 0 35 0 34 83 3 82 3 3 46 c3 45 2 47 -29 53 -17 3 -56 6
-85 6 l-54 0 0 40 0 39 103 3 c99 3 102 4 105 27 2 12 1 34 -2 47 l-6 24 -159
0 c-87 0 -161 -3 -164 -7z"/>
<path d="M2503 4204 c-3 -9 -1 -46 6 -82 6 -37 14 -100 18 -141 8 -77 24 -101
58 -88 14 6 16 16 12 60 -7 78 -27 240 -32 255 -6 18 -55 15 -62 -4z"/>
<path d="M2235 4128 c-235 -75 -217 -71 -343 -64 -64 4 -135 11 -157 16 -22 5
-61 10 -86 10 l-45 0 -17 -104 c-9 -57 -17 -115 -17 -129 0 -104 422 -126 701
-37 129 41 194 96 161 136 -4 5 -18 36 -30 69 -31 81 -55 128 -67 130 -5 1
-50 -11 -100 -27z"/>
<path d="M2554 3836 c-10 -25 0 -69 18 -80 28 -17 49 11 41 57 -5 31 -10 37
-30 37 -13 0 -26 -6 -29 -14z"/>
<path d="M10030 3691 c-25 -9 -67 -27 -94 -39 -37 -17 -52 -20 -62 -11 -17 14
-44 5 -44 -16 0 -9 -16 -23 -37 -31 -21 -9 -60 -26 -88 -39 -27 -12 -72 -33
-100 -45 -27 -12 -64 -28 -82 -36 -17 -8 -33 -14 -36 -14 -3 0 -40 -16 -84
-36 -43 -19 -87 -39 -98 -44 -11 -5 -42 -19 -70 -31 -27 -12 -88 -39 -135 -59
-48 -21 -85 -43 -85 -51 0 -23 138 -249 153 -249 13 0 129 48 267 110 39 17
79 35 90 40 11 5 55 25 98 44 42 20 80 36 83 36 3 0 31 12 62 26 166 77 215
94 228 83 27 -22 36 -16 -181 -111 -299 -129 -279 -119 -283 -151 -2 -17 2
-27 15 -31 16 -5 163 55 501 204 59 27 64 43 33 100 l-19 36 61 24 c73 30 151
101 160 147 24 120 -111 197 -253 144z"/>
<path d="M2256 3607 c-41 -30 -38 -204 5 -290 29 -57 94 -145 138 -185 55 -51
160 -118 231 -147 36 -15 74 -31 85 -36 72 -31 289 -67 490 -80 202 -13 991
-6 1185 11 63 5 192 14 285 20 94 5 204 14 245 20 41 5 140 15 220 21 80 6
217 17 305 24 88 8 219 19 290 24 72 6 182 15 245 21 211 19 732 40 995 40
227 0 736 -23 754 -34 4 -3 45 -9 91 -15 47 -7 105 -16 130 -21 126 -28 251
-61 305 -80 33 -11 76 -26 95 -32 19 -5 40 -13 45 -18 26 -19 74 -28 90 -16
35 26 -5 54 -190 129 -234 96 -558 157 -950 178 -222 12 -977 5 -1160 -11 -60
-5 -184 -14 -275 -20 -91 -5 -203 -15 -250 -20 -47 -6 -146 -15 -220 -21 -74
-5 -211 -17 -305 -25 -174 -15 -435 -35 -720 -55 -216 -16 -1048 -16 -1190 -1
-290 32 -390 55 -545 131 -88 42 -205 151 -239 221 -25 52 -51 156 -51 205 0
60 -84 98 -134 62z"/>
<path d="M2060 3433 c-50 -20 -52 -81 -4 -176 79 -159 187 -256 374 -336 31
-13 142 -41 164 -41 30 0 16 28 -16 35 -93 20 -245 116 -312 198 -46 57 -95
162 -105 228 -12 72 -53 110 -101 92z"/>
<path d="M7073 3289 c-31 -9 -43 -31 -24 -43 5 -3 127 -11 271 -16 311 -13
572 -47 795 -104 33 -8 86 -22 118 -30 45 -11 57 -11 57 -2 0 15 -46 36 -145
66 -38 12 -79 26 -90 30 -11 4 -60 18 -110 30 -49 11 -103 25 -120 30 -16 5
-64 14 -105 19 -41 6 -104 15 -140 21 -82 12 -464 11 -507 -1z"/>
<path d="M8908 3206 c-15 -6 -47 -28 -70 -48 -24 -20 -74 -63 -113 -95 -120
-100 -128 -107 -157 -136 -28 -28 -29 -51 -1 -61 14 -6 191 12 204 20 4 2 51
8 105 14 114 13 208 36 225 57 10 11 8 20 -8 41 -10 15 -23 34 -27 42 -4 8
-12 24 -19 35 -47 77 -63 103 -73 120 -14 24 -31 27 -66 11z"/>
</g>
</svg>
